<svg width="22" height="22" viewBox="0 0 22 22" fill="none" xmlns="http://www.w3.org/2000/svg">
<path d="M6.76996 6.2036H3.47992C2.29992 6.2036 1.36993 7.218 1.48993 8.3916L2.48993 19.0631C2.58993 20.0902 3.44992 20.875 4.47992 20.875H10.9999H17.52C18.55 20.875 19.41 20.0902 19.51 19.0631L20.51 8.3916C20.63 7.218 19.7 6.2036 18.52 6.2036H15.2299M6.76996 6.2036V5.3571C6.76996 3.0198 8.65994 1.125 10.9999 1.125C13.3399 1.125 15.2299 3.0198 15.2299 5.3571V6.2036M6.76996 6.2036H10.9999H15.2299M6.76996 6.2036H15.2299M6.76996 6.2036V8.7429M15.2299 6.2036V8.7429" stroke="white" stroke-width="1.2"/>
</svg>
