<svg width="52" height="52" viewBox="0 0 52 52" fill="none" xmlns="http://www.w3.org/2000/svg">
<rect width="52" height="52" rx="26" fill="#EE5E31"/>
<path d="M21.7679 21.2036H18.4764C17.2975 21.2036 16.3744 22.218 16.4852 23.3916L17.4931 34.0631C17.5902 35.0902 18.4526 35.875 19.4843 35.875H26H32.5157C33.5474 35.875 34.4098 35.0902 34.5068 34.0631L35.5148 23.3916C35.6256 22.218 34.7025 21.2036 33.5236 21.2036H30.2321M21.7679 21.2036V20.3571C21.7679 18.0198 23.6626 16.125 26 16.125V16.125C28.3373 16.125 30.2321 18.0198 30.2321 20.3571V21.2036M21.7679 21.2036H26H30.2321M21.7679 21.2036H30.2321M21.7679 21.2036V23.7429M30.2321 21.2036V23.7429" stroke="white" stroke-width="1.2"/>
</svg>
