<svg width="24" height="25" viewBox="0 0 24 25" fill="none" xmlns="http://www.w3.org/2000/svg">
<path d="M5.95396 19.88L5.95397 19.88L5.9801 19.8734L5.98012 19.8734L8.60809 19.2164C8.62428 19.2124 8.64043 19.2084 8.65654 19.2044C8.87531 19.15 9.08562 19.0978 9.27707 18.9894C9.46852 18.881 9.62153 18.7275 9.7807 18.5679C9.79242 18.5561 9.80418 18.5444 9.81598 18.5325L17.0101 11.3385L17.0101 11.3385L17.0369 11.3117C17.3472 11.0014 17.6215 10.7272 17.8128 10.4764C18.0202 10.2046 18.1858 9.89104 18.1858 9.5C18.1858 9.10896 18.0202 8.79543 17.8128 8.52361C17.6215 8.27285 17.3472 7.99863 17.0369 7.68835L17.01 7.66152L16.8385 7.48995L16.8117 7.46314C16.5014 7.1528 16.2272 6.87853 15.9764 6.6872C15.7046 6.47981 15.391 6.31421 15 6.31421C14.609 6.31421 14.2954 6.47981 14.0236 6.6872C13.7729 6.87853 13.4986 7.15278 13.1884 7.46311L13.1615 7.48995L5.96745 14.684C5.95565 14.6958 5.94386 14.7076 5.93211 14.7193C5.77249 14.8785 5.61904 15.0315 5.51064 15.2229C5.40225 15.4144 5.34999 15.6247 5.29562 15.8435C5.29162 15.8596 5.28761 15.8757 5.28356 15.8919L4.62003 18.546C4.61762 18.5557 4.61518 18.5654 4.61272 18.5752C4.57411 18.7293 4.53044 18.9035 4.51593 19.0518C4.49978 19.2169 4.50127 19.5162 4.74255 19.7574C4.98383 19.9987 5.28307 20.0002 5.44819 19.9841C5.59646 19.9696 5.77072 19.9259 5.92479 19.8873C5.9346 19.8848 5.94433 19.8824 5.95396 19.88Z" stroke="#1B1B1B" stroke-width="1.2"/>
<path d="M12.5 8L16.5 12" stroke="#1B1B1B" stroke-width="1.2"/>
</svg>
