<svg width="22" height="21" viewBox="0 0 22 21" fill="none" xmlns="http://www.w3.org/2000/svg">
<path fill-rule="evenodd" clip-rule="evenodd" d="M6.59985 5.62499C6.59985 3.19489 8.56987 1.22499 10.9999 1.22499C13.4299 1.22499 15.3999 3.19489 15.3999 5.62499C15.3999 8.05509 13.4299 10.025 10.9999 10.025C8.56987 10.025 6.59985 8.05509 6.59985 5.62499ZM10.9999 0.0249939C7.90987 0.0249939 5.3999 2.53219 5.3999 5.62499C5.3999 8.71779 7.90987 11.225 10.9999 11.225C14.0899 11.225 16.5998 8.71779 16.5998 5.62499C16.5998 2.53219 14.0899 0.0249939 10.9999 0.0249939ZM10.9999 14.025C8.69987 14.025 6.45986 14.5926 4.60986 15.6548C2.76986 16.7168 1.3999 18.2285 0.779902 19.982C0.659902 20.294 0.829888 20.6374 1.13989 20.7489C1.44989 20.8604 1.78991 20.6978 1.90991 20.3857C2.41991 18.9497 3.55983 17.643 5.20983 16.6949C6.85983 15.747 8.88987 15.225 10.9999 15.225C13.1099 15.225 15.1399 15.747 16.7899 16.6949C18.4399 17.643 19.5798 18.9497 20.0898 20.3857C20.2098 20.6978 20.5499 20.8604 20.8599 20.7489C21.1699 20.6374 21.3398 20.2941 21.2198 19.982C20.5998 18.2285 19.2299 16.7169 17.3899 15.6548C15.5399 14.5926 13.2999 14.025 10.9999 14.025Z" fill="white"/>
</svg>
